<?xml version="1.0" standalone="no"?>
<!DOCTYPE svg PUBLIC "-//W3C//DTD SVG 20010904//EN"
 "http://www.w3.org/TR/2001/REC-SVG-20010904/DTD/svg10.dtd">
<svg version="1.0" xmlns="http://www.w3.org/2000/svg"
 width="1024.000000pt" height="1024.000000pt" viewBox="0 0 1024.000000 1024.000000"
 preserveAspectRatio="xMidYMid meet">
<metadata>
Created by potrace 1.11, written by Peter Selinger 2001-2013
</metadata>
<g transform="translate(0.000000,1024.000000) scale(0.100000,-0.100000)"
fill="#000000" stroke="none">
<path d="M4425 9569 c-33 -18 -72 -40 -87 -50 -14 -11 -29 -19 -33 -19 -4 0
-17 -8 -30 -17 -12 -10 -33 -25 -45 -33 -13 -8 -34 -25 -48 -37 -14 -13 -28
-23 -32 -23 -15 0 -226 -215 -270 -275 -25 -33 -47 -62 -50 -65 -9 -8 -43 -62
-64 -100 -10 -19 -22 -37 -25 -40 -10 -7 -61 -115 -61 -127 0 -6 -7 -13 -15
-17 -8 -3 -15 -9 -14 -13 3 -17 -14 -73 -22 -73 -5 0 -8 -3 -7 -7 2 -7 -23
-92 -39 -133 -8 -21 -10 -29 -38 -155 -8 -39 -16 -85 -20 -115 -2 -19 -5 -35
-6 -35 -1 0 -2 -78 -3 -172 -1 -95 1 -173 4 -173 3 0 5 -12 4 -27 0 -15 3 -47
8 -72 5 -25 11 -62 14 -81 2 -19 9 -48 14 -65 14 -42 112 -385 114 -399 1 -6
4 -15 7 -21 6 -10 18 -52 25 -94 3 -14 8 -29 12 -35 3 -6 7 -15 9 -21 1 -5 8
-33 16 -62 8 -28 12 -54 9 -57 -3 -3 -1 -6 5 -6 5 0 10 -6 11 -12 0 -7 8 -38
17 -68 9 -30 18 -62 20 -70 3 -8 19 -62 36 -120 17 -58 31 -109 33 -115 1 -5
4 -14 7 -20 6 -9 19 -55 24 -80 1 -5 3 -12 4 -15 2 -3 4 -13 6 -22 2 -9 10
-39 18 -65 32 -105 59 -196 62 -212 2 -9 4 -16 5 -16 1 0 3 -7 5 -15 4 -17 56
-193 86 -294 12 -37 23 -76 24 -85 2 -9 4 -16 5 -16 1 0 4 -13 6 -30 3 -16 9
-34 14 -40 4 -5 10 -23 13 -40 3 -16 12 -50 21 -74 9 -23 17 -55 17 -70 2 -26
-88 -261 -104 -272 -5 -3 -8 -9 -8 -13 3 -21 -1 -36 -11 -48 -7 -7 -14 -24
-16 -38 -1 -13 -6 -27 -10 -30 -4 -3 -8 -12 -10 -20 -2 -8 -9 -28 -16 -45 -22
-47 -68 -165 -70 -178 -1 -7 -9 -28 -18 -47 -9 -19 -29 -66 -44 -105 -32 -78
-122 -183 -145 -170 -7 5 -10 4 -6 -2 9 -14 -89 -47 -148 -50 -58 -3 -126 13
-175 41 -45 25 -132 114 -125 127 4 5 2 9 -4 9 -9 0 -25 38 -37 91 -10 42 -11
583 -1 597 5 6 5 12 1 12 -13 0 -12 423 1 432 7 5 7 8 0 8 -12 0 -14 628 -2
648 5 6 5 12 0 12 -16 0 -10 114 7 128 12 10 12 12 1 10 -22 -4 -23 211 -1
230 12 10 13 12 1 10 -12 -3 -15 19 -16 127 -1 72 2 137 6 146 5 9 5 19 2 23
-4 4 -8 96 -8 204 -1 108 -4 206 -8 217 -3 11 -9 34 -11 50 -5 28 -52 127 -79
165 -47 67 -166 170 -196 170 -6 0 -11 4 -11 8 0 5 -34 19 -75 31 -82 26 -181
33 -254 19 -25 -5 -53 -10 -62 -11 -9 -2 -51 -20 -93 -40 -141 -70 -253 -211
-293 -372 -7 -30 -13 -222 -13 -475 0 -124 0 -265 0 -315 0 -385 0 -392 34
-379 6 2 29 6 51 8 22 2 40 5 40 6 0 1 10 3 22 6 62 11 186 81 243 137 62 60
133 165 145 214 3 10 12 43 21 73 28 96 16 257 -27 357 -10 23 -15 43 -11 43
4 0 2 4 -4 8 -6 4 -25 28 -42 53 -33 49 -106 129 -117 129 -4 0 -13 6 -21 14
-12 12 -12 21 3 66 27 84 106 148 186 150 29 1 42 -1 99 -12 28 -6 85 -57 110
-96 l23 -37 2 -550 c2 -302 4 -939 6 -1415 3 -747 6 -893 17 -907 2 -2 4 -7 5
-13 1 -5 3 -11 4 -12 2 -2 5 -14 7 -27 16 -90 131 -255 227 -326 28 -22 54
-42 57 -46 3 -3 19 -12 37 -19 17 -8 29 -18 27 -22 -3 -5 -2 -8 3 -6 4 1 46
-11 93 -27 72 -24 102 -28 197 -29 118 -1 114 1 117 -46 2 -19 -10 -109 -17
-135 -19 -65 -29 -92 -57 -141 -17 -30 -44 -69 -60 -86 -17 -17 -30 -34 -30
-38 0 -4 -26 -25 -57 -48 -32 -23 -62 -45 -68 -50 -20 -15 -120 -55 -137 -54
-10 0 -21 -5 -25 -11 -4 -7 -8 -231 -8 -499 l0 -488 25 -1 c50 -2 96 -9 130
-20 55 -17 160 -70 160 -80 0 -5 6 -9 14 -9 21 0 130 -114 151 -159 11 -22 23
-41 28 -41 4 0 7 -6 7 -13 0 -8 7 -28 16 -46 9 -17 17 -40 19 -49 2 -9 4 -17
5 -17 3 0 16 -99 19 -148 1 -4 10 -3 20 3 13 6 22 7 26 0 3 -6 15 -6 30 0 15
6 25 5 27 -1 2 -7 12 -7 31 0 15 6 27 7 27 3 0 -4 11 -7 25 -7 14 0 25 2 25 5
0 6 88 3 106 -4 8 -3 14 0 14 6 0 9 3 9 11 1 8 -8 20 -8 35 -3 13 5 24 6 24 2
0 -4 11 -7 25 -7 14 0 25 2 25 5 0 6 88 3 106 -4 8 -3 14 -1 14 4 0 5 13 5 30
0 18 -5 30 -5 30 0 0 6 10 6 25 0 15 -6 26 -6 30 0 4 6 13 7 24 1 9 -5 23 -6
31 -1 7 4 24 4 36 0 14 -6 26 -5 29 0 4 6 13 7 24 1 9 -5 23 -6 30 -1 8 4 27
4 42 0 17 -5 29 -5 29 0 0 6 10 6 25 0 15 -6 26 -6 30 1 4 5 13 6 22 1 8 -5
26 -7 40 -4 18 3 23 10 20 23 -3 11 -1 22 5 25 7 4 7 9 0 13 -6 4 -13 18 -15
32 -8 42 -44 112 -72 138 -14 13 -25 27 -25 33 0 5 -4 7 -9 3 -5 -3 -12 -1
-16 5 -8 13 -79 50 -109 57 -44 10 -106 13 -289 14 -141 1 -190 4 -200 14 -6
7 -32 36 -57 64 -25 28 -64 71 -87 95 -23 24 -39 47 -36 50 4 3 -1 6 -10 6
-10 0 -17 4 -17 8 0 5 -23 32 -51 62 -43 46 -87 112 -95 145 -2 6 -6 21 -10
35 -8 31 -8 126 0 164 12 53 54 122 100 164 42 39 80 53 88 34 2 -4 33 -25 70
-45 37 -21 74 -44 82 -53 9 -8 16 -13 16 -9 0 5 48 -23 60 -35 3 -3 22 -13 43
-23 24 -10 35 -22 31 -29 -5 -7 -3 -8 6 -3 7 4 15 4 19 -1 7 -10 72 -48 114
-66 15 -7 27 -16 27 -20 0 -4 7 -8 15 -8 8 0 15 -3 15 -7 0 -5 18 -17 40 -27
22 -11 40 -23 40 -28 0 -5 4 -7 9 -3 5 3 12 1 16 -5 4 -6 29 -22 56 -36 30
-15 47 -29 43 -36 -4 -6 -3 -8 4 -4 6 3 26 -2 44 -12 123 -68 311 -41 410 60
15 15 32 28 38 28 6 0 9 4 5 9 -3 5 0 13 6 17 11 6 48 82 57 114 13 49 16 112
9 160 -9 62 -52 158 -79 178 -10 7 -16 18 -13 23 4 5 1 9 -4 9 -12 0 -79 89
-79 104 0 5 -7 13 -16 18 -9 5 -14 13 -11 19 4 5 2 9 -3 9 -5 0 -15 12 -22 28
-8 15 -22 39 -32 54 -10 14 -18 33 -18 41 0 9 -3 17 -7 19 -9 4 -71 155 -75
183 -2 11 -6 22 -10 25 -4 3 -9 17 -11 30 -3 14 -10 45 -17 69 -6 23 -9 50 -6
58 3 8 1 11 -4 8 -5 -3 -9 4 -9 17 1 13 -2 46 -6 73 -19 118 -6 422 18 437 9
6 8 8 -1 8 -7 0 -10 5 -7 10 4 6 9 23 11 38 6 33 42 160 53 187 19 46 28 70
28 75 0 3 12 27 26 55 15 27 27 55 27 62 0 6 4 13 8 15 4 2 17 20 27 41 32 61
138 206 147 201 5 -3 7 -1 6 4 -5 15 72 93 84 86 6 -4 8 -3 4 4 -5 9 47 72 60
72 3 0 22 16 42 35 20 19 42 35 48 35 7 0 15 7 18 16 4 9 9 14 12 11 4 -3 17
4 30 17 14 12 50 35 82 51 31 17 68 37 82 46 14 9 28 17 33 18 4 0 24 8 45 17
42 17 174 62 206 69 12 2 38 8 58 14 20 5 39 6 42 3 4 -3 6 -1 6 4 0 14 18 14
780 19 595 3 834 8 938 17 6 1 12 5 12 10 0 4 7 8 15 8 45 0 241 125 254 163
2 6 17 25 33 42 15 16 28 35 28 42 0 6 6 18 13 25 15 15 60 151 63 188 1 14 2
25 4 25 1 0 3 264 4 587 1 670 12 605 -93 542 -90 -55 -92 -57 -147 -111 -94
-92 -96 -97 -95 -384 0 -186 -3 -249 -12 -250 -68 -6 -255 -2 -264 5 -8 5 -13
5 -13 -1 0 -11 -29 -11 -48 1 -6 4 -12 3 -12 -2 0 -9 -42 -8 -57 1 -5 3 -15 2
-23 -3 -7 -4 -23 -4 -36 0 -12 5 -25 6 -29 2 -11 -11 -75 -9 -75 2 0 7 -3 8
-8 1 -8 -12 -142 -14 -142 -2 0 5 -5 5 -12 1 -17 -11 -108 -11 -108 0 0 5 -5
5 -12 0 -16 -11 -39 -11 -55 -1 -7 5 -13 4 -13 -2 0 -7 -8 -7 -25 -1 -14 5
-27 5 -30 1 -5 -10 -23 -9 -40 0 -9 5 -31 5 -37 -1 -10 -7 -39 -7 -44 1 -3 5
-10 7 -15 3 -14 -8 -59 -12 -60 -5 -1 3 -3 22 -4 41 -7 109 -26 201 -60 300
-11 30 -18 58 -17 63 1 4 -2 7 -6 7 -5 0 -17 20 -28 45 -10 25 -22 45 -26 45
-4 0 -8 5 -8 11 0 6 -13 28 -30 49 -16 21 -30 43 -30 50 0 6 -4 8 -10 5 -5 -3
-10 -2 -10 3 0 14 -93 106 -144 142 -25 19 -46 38 -46 43 0 6 -3 8 -6 4 -3 -3
-24 5 -45 19 -21 13 -40 24 -43 24 -2 0 -25 10 -52 22 -27 12 -56 23 -64 24
-8 2 -16 8 -18 14 -2 5 -8 8 -13 5 -7 -5 -52 10 -134 46 -11 4 -51 19 -90 33
-38 13 -83 30 -100 37 -16 7 -33 12 -37 11 -5 -1 -8 2 -8 6 0 4 -11 9 -25 10
-14 1 -38 8 -53 15 -15 8 -58 25 -97 38 -38 13 -72 26 -75 29 -3 3 -12 6 -20
8 -55 10 -187 112 -174 133 3 5 1 9 -5 9 -19 0 -51 92 -56 158 -2 36 -2 68 0
72 5 7 76 -13 99 -28 6 -4 13 -7 16 -7 4 0 68 -23 120 -42 8 -3 20 -7 25 -9 6
-1 28 -10 50 -20 65 -28 148 -50 183 -49 17 0 32 -4 32 -10 0 -5 4 -4 9 3 4 8
10 13 12 11 11 -7 83 15 123 37 54 30 102 79 133 134 22 39 19 51 -12 56 -24
5 -350 126 -361 134 -6 6 -13 7 -16 4 -3 -3 -26 15 -52 39 -48 46 -92 128 -82
153 3 8 2 14 -2 14 -5 0 -7 19 -6 43 1 23 3 42 4 42 1 0 4 10 5 23 4 38 69
144 82 134 2 -2 12 6 21 18 27 32 115 58 180 53 31 -2 59 -7 62 -12 3 -4 12
-8 20 -9 8 0 53 -14 100 -31 47 -17 92 -34 100 -37 8 -3 16 -5 18 -4 2 1 14
-6 28 -14 13 -9 24 -14 24 -11 0 3 15 -1 34 -9 51 -21 60 -9 59 81 -1 67 -6
111 -13 121 -2 1 -3 5 -4 10 -4 22 -59 102 -92 132 -45 40 -85 61 -193 96 -42
14 -89 32 -106 39 -16 7 -43 17 -60 21 -16 4 -36 11 -42 17 -7 5 -13 7 -13 4
0 -3 -17 1 -37 10 -21 9 -95 35 -165 59 -70 24 -150 53 -177 64 -28 11 -51 17
-51 15 0 -3 -12 1 -27 8 -16 8 -64 26 -108 41 -44 15 -89 32 -100 37 -11 5
-29 11 -40 14 -11 2 -101 33 -200 68 -99 36 -189 67 -200 71 -13 4 -42 -6 -80
-25z"/>
<path d="M7131 9068 c-38 -38 -80 -124 -87 -176 -18 -126 6 -196 109 -323 20
-26 37 -50 37 -54 0 -3 6 -12 13 -20 19 -20 40 -47 67 -85 14 -19 30 -42 37
-50 72 -89 75 -94 57 -107 -9 -7 -29 -23 -43 -35 -15 -13 -53 -43 -86 -68 -76
-57 -83 -62 -100 -77 -7 -7 -17 -13 -22 -13 -4 0 -14 -9 -21 -20 -7 -11 -16
-20 -21 -20 -5 0 -20 -9 -33 -20 -12 -11 -52 -42 -88 -70 -36 -27 -70 -54 -75
-58 -6 -5 -55 -43 -110 -85 -55 -42 -115 -89 -134 -104 -18 -16 -41 -32 -50
-37 -9 -5 -26 -19 -38 -31 -12 -13 -28 -25 -35 -28 -9 -4 1 -17 27 -39 43 -35
190 -181 215 -214 41 -52 83 -119 83 -131 0 -7 4 -13 9 -13 7 0 80 -141 84
-162 1 -5 2 -9 4 -10 1 -2 3 -10 5 -18 2 -8 10 -35 18 -60 9 -25 18 -58 21
-74 3 -16 7 -31 10 -33 5 -5 89 57 94 70 2 4 8 7 14 7 6 0 16 6 22 14 6 7 61
51 121 97 61 46 121 94 135 106 14 13 30 23 37 23 7 0 13 4 13 8 0 4 39 37 87
73 47 35 91 69 97 74 6 6 40 33 76 60 194 146 277 303 272 520 -1 91 -17 154
-65 255 -9 19 -277 384 -319 435 -5 6 -36 46 -69 90 -32 44 -65 87 -72 95 -6
8 -66 88 -132 177 -66 89 -123 162 -126 163 -4 0 -21 -15 -38 -32z"/>
<path d="M6377 4804 c-1 -1 -29 -5 -62 -9 -33 -3 -67 -8 -75 -10 -8 -2 -35 -7
-60 -11 -55 -8 -60 -9 -85 -17 -11 -3 -31 -9 -45 -11 -14 -3 -45 -10 -70 -15
-25 -5 -124 -35 -220 -67 -96 -32 -177 -58 -180 -59 -3 0 -10 -3 -15 -7 -6 -4
-40 -18 -75 -31 -36 -14 -83 -33 -105 -43 -22 -10 -42 -18 -45 -19 -14 -4 -50
-20 -97 -42 -29 -14 -55 -24 -59 -23 -4 1 -10 -2 -13 -7 -3 -5 -36 -22 -73
-38 -38 -16 -68 -33 -68 -36 0 -4 -13 -10 -30 -14 -16 -4 -30 -11 -30 -16 0
-6 -4 -8 -9 -4 -5 3 -17 -2 -25 -11 -15 -14 -14 -18 5 -45 11 -16 18 -29 15
-29 -3 0 3 -9 14 -20 11 -11 20 -25 20 -30 0 -6 9 -21 20 -33 11 -12 19 -26
16 -32 -2 -6 5 -17 16 -24 11 -7 18 -15 15 -18 -3 -3 3 -14 14 -26 10 -11 19
-27 19 -34 0 -7 5 -13 12 -13 6 0 9 -3 5 -6 -3 -4 5 -21 18 -39 14 -17 25 -37
25 -43 0 -6 3 -12 8 -14 9 -4 72 -106 72 -117 0 -5 21 -9 46 -9 42 -1 91 -7
139 -16 77 -15 212 -109 275 -192 37 -48 96 -206 85 -225 -3 -4 -2 -10 3 -13
23 -14 -7 -202 -46 -281 l-20 -40 21 -35 c80 -129 145 -236 161 -263 10 -18
21 -34 25 -37 3 -3 15 -23 26 -45 11 -22 22 -42 25 -45 11 -11 50 -70 50 -75
0 -4 20 -38 45 -76 25 -38 45 -74 45 -79 0 -6 4 -10 9 -10 5 0 11 -8 14 -17 4
-10 24 -47 47 -83 42 -69 46 -75 83 -130 13 -19 34 -55 47 -80 14 -25 31 -51
39 -59 7 -8 18 -27 23 -42 8 -24 12 -26 42 -19 17 4 42 3 54 -1 12 -5 24 -4
27 1 4 6 13 7 24 1 9 -5 23 -6 31 -1 7 4 24 4 36 0 14 -6 26 -5 29 0 4 6 13 7
24 1 9 -5 23 -6 30 -2 7 5 27 5 45 2 17 -4 46 -4 64 0 17 3 32 4 32 0 0 -7
101 -4 108 4 2 2 15 0 28 -5 14 -6 26 -6 29 0 3 6 16 5 31 0 14 -6 23 -7 21
-2 -3 4 10 7 29 7 19 0 34 -2 34 -5 0 -3 25 -5 55 -5 30 0 55 3 55 7 0 4 14 3
30 -2 19 -5 30 -5 30 1 0 6 6 6 18 0 10 -5 24 -6 32 -1 8 5 21 5 30 0 9 -5 22
-5 30 0 8 5 21 5 30 0 9 -5 22 -5 30 0 7 4 24 4 36 0 13 -5 25 -6 28 -1 3 4
21 6 40 5 20 -2 38 1 41 6 4 6 2 10 -4 10 -6 0 -8 7 -5 15 8 19 -23 111 -49
150 -44 65 -126 127 -187 140 -8 2 -15 4 -15 5 0 5 -131 11 -289 13 l-180 2
-22 40 c-29 52 -55 94 -109 180 -24 39 -59 95 -76 125 -18 30 -36 57 -39 60
-4 3 -9 12 -13 20 -3 8 -40 69 -82 135 -42 66 -81 132 -88 148 -6 15 -14 27
-18 27 -4 0 -12 14 -19 30 -7 17 -15 30 -19 30 -3 0 -12 15 -20 33 -8 17 -25
46 -38 63 -13 17 -23 34 -23 37 0 3 48 55 108 115 118 119 184 190 252 272 25
29 56 64 69 77 13 13 21 23 17 23 -4 0 2 9 13 21 10 12 45 60 78 107 32 48 60
89 63 92 4 3 21 34 39 70 19 36 38 68 43 71 5 3 8 8 7 10 -5 7 36 99 44 99 5
0 5 5 2 10 -3 6 -3 16 2 23 8 13 8 14 18 61 3 16 9 34 12 39 5 9 13 69 16 122
4 87 -54 248 -96 261 -10 3 -16 8 -13 11 7 7 -61 53 -96 65 -16 6 -28 13 -28
17 0 4 -6 8 -12 8 -7 1 -44 9 -83 18 -59 15 -347 30 -358 19z"/>
</g>
</svg>
